<?xml version="1.0" encoding="UTF-8" standalone="no"?>
<!-- Created with Inkscape (http://www.inkscape.org/) -->

<svg
   xmlns:dc="http://purl.org/dc/elements/1.1/"
   xmlns:cc="http://creativecommons.org/ns#"
   xmlns:rdf="http://www.w3.org/1999/02/22-rdf-syntax-ns#"
   xmlns:svg="http://www.w3.org/2000/svg"
   xmlns="http://www.w3.org/2000/svg"
   xmlns:sodipodi="http://sodipodi.sourceforge.net/DTD/sodipodi-0.dtd"
   xmlns:inkscape="http://www.inkscape.org/namespaces/inkscape"
   width="226.72531"
   height="44.747124"
   viewBox="0 0 59.987741 11.839343"
   version="1.1"
   id="svg8"
   inkscape:version="0.92.4 (5da689c313, 2019-01-14)"
   sodipodi:docname="logo.svg">
  <defs
     id="defs2">
    <clipPath
       clipPathUnits="userSpaceOnUse"
       id="clipPath390-3">
      <path
         d="M 0,0 H 566.929 V 566.929 H 0 Z"
         id="path388-2"
         inkscape:connector-curvature="0" />
    </clipPath>
    <clipPath
       clipPathUnits="userSpaceOnUse"
       id="clipPath358-5">
      <path
         d="M 0,0 H 566.929 V 566.929 H 0 Z"
         id="path356-6"
         inkscape:connector-curvature="0" />
    </clipPath>
  </defs>
  <sodipodi:namedview
     id="base"
     pagecolor="#ffffff"
     bordercolor="#666666"
     borderopacity="1.0"
     inkscape:pageopacity="0.0"
     inkscape:pageshadow="2"
     inkscape:zoom="1.979899"
     inkscape:cx="110.43269"
     inkscape:cy="12.085219"
     inkscape:document-units="mm"
     inkscape:current-layer="layer1"
     showgrid="false"
     fit-margin-top="2"
     fit-margin-left="2"
     fit-margin-right="2"
     fit-margin-bottom="2"
     units="px"
     showguides="false"
     inkscape:window-width="1920"
     inkscape:window-height="1015"
     inkscape:window-x="0"
     inkscape:window-y="0"
     inkscape:window-maximized="1" />
  <metadata
     id="metadata5">
    <rdf:RDF>
      <cc:Work
         rdf:about="">
        <dc:format>image/svg+xml</dc:format>
        <dc:type
           rdf:resource="http://purl.org/dc/dcmitype/StillImage" />
        <dc:title></dc:title>
      </cc:Work>
    </rdf:RDF>
  </metadata>
  <g
     inkscape:label="Camada 1"
     inkscape:groupmode="layer"
     id="layer1"
     transform="translate(-73.613909,-122.96461)">
    <path
       style="fill:#d20a11;fill-opacity:1;fill-rule:nonzero;stroke:none;stroke-width:2.78074002"
       d="m 79.534871,123.49378 c -2.978173,0 -5.391795,2.41381 -5.391795,5.39198 0,2.97539 2.413622,5.38903 5.391795,5.38903 2.978172,0 5.391795,-2.41364 5.391795,-5.38903 0,-2.97817 -2.413623,-5.39198 -5.391795,-5.39198 z m 8.592553,1.10352 v 8.57287 h 1.24293 v -4.12661 h 0.967603 l 2.633364,4.12661 h 1.36818 l -2.694426,-4.14887 c 1.432081,-0.2308 2.252283,-1.03154 2.252283,-2.27453 0,-1.26524 -1.092857,-2.14947 -2.630606,-2.14947 z m 38.732796,0 v 8.57287 h 1.24293 v -4.12661 h 0.96778 l 2.63337,4.12661 h 1.36818 l -2.69461,-4.14887 c 1.43208,-0.2308 2.25246,-1.03154 2.25246,-2.27453 0,-1.26524 -1.09285,-2.14947 -2.6306,-2.14947 z m -30.833622,5.5e-4 v 8.57287 h 4.632572 v -0.58946 h -3.389642 v -3.53991 h 3.031002 v -0.58946 h -3.031002 v -3.26458 h 3.284072 v -0.58946 z m 6.676842,0 v 8.57287 h 0.71453 v -6.36234 l 5.09716,6.36234 h 0.5479 v -8.57287 h -0.71748 v 6.36234 l -5.09439,-6.36234 z m 8.82521,0 v 8.57287 h 0.71453 v -6.36234 l 5.09716,6.36234 h 0.5479 v -8.57287 h -0.71747 v 6.36234 l -5.0944,-6.36234 z m 8.74061,0 v 8.57287 h 4.63276 v -0.58946 h -3.3924 v -3.53991 h 3.03376 v -0.58946 h -3.03376 v -3.26458 h 3.28683 v -0.58946 z m -30.898906,0.58891 h 1.451496 c 1.034435,0 1.790828,0.67577 1.790828,1.60176 0,0.97048 -0.842644,1.66558 -2.041143,1.66558 h -1.201181 z m 38.732796,0 h 1.45443 c 1.03166,0 1.79083,0.67577 1.79083,1.60176 0,0.97048 -0.8454,1.66558 -2.0439,1.66558 h -1.20136 z m -45.911373,0.26779 c 0.791217,-0.007 1.153319,0.73667 0.969442,1.34427 -0.197432,0.65625 -0.720285,0.94255 -1.109589,0.90084 -0.45604,-0.0473 -0.695211,-0.51153 -0.742484,-0.87859 -0.0862,-0.1585 -0.369747,-0.14198 -0.547714,0.0443 -0.670158,0.73411 -1.206834,1.69085 -1.445978,2.14689 -0.383742,0.77027 -0.823138,1.75176 -1.323671,2.99753 0,0 -0.03336,0.10005 -0.164057,0.10005 h -1.665578 c -0.06674,0 -0.105719,-0.025 -0.133525,-0.0555 -0.0723,-0.0834 -0.03055,-0.16693 -0.02777,-0.17804 0.06952,-0.18631 1.682253,-4.56318 1.760114,-4.80233 0.05839,-0.17797 0.02779,-0.29751 -0.114031,-0.30862 -0.04727,-0.003 -0.16396,0.0223 -0.455937,0.27809 -0.216898,0.20022 -0.578428,0.58395 -0.578428,0.58395 -0.09733,0.11401 -0.200253,-0.003 -0.228061,-0.0528 -0.03893,-0.0751 -0.05568,-0.18906 0.0083,-0.2836 0.761923,-1.12064 1.852102,-1.66568 2.291459,-1.74632 0.653473,-0.11679 0.998227,0.0362 1.126141,0.3031 0.197432,0.40599 -0.03059,1.24569 -0.116789,1.54879 0.589516,-0.95658 1.159536,-1.39318 1.379215,-1.535 0.434056,-0.28624 0.809362,-0.40411 1.118968,-0.40701 z"
       id="path362-3"
       inkscape:connector-curvature="0" />
  </g>
</svg>
